<?xml version="1.0" encoding="UTF-8"?><svg id="b" xmlns="http://www.w3.org/2000/svg" width="453.072" height="222.191" viewBox="0 0 453.072 222.191"><defs><style>.d{fill:#9ec6e5;}.d,.e,.f,.g,.h,.i,.j,.k{stroke-width:0px;}.e{fill:none;}.f{fill:#211715;}.g{fill:#d9d9d9;}.h{fill:#645d5c;}.i{fill:#fff;}.j{fill:#3d8dcc;}.k{fill:#c6c6c6;}</style></defs><g id="c"><path class="h" d="M28.999,134.671c.03-.408.068-.802.115-1.183.345-2.602,1.107-4.628,2.154-6.367,1.151,1.144,3.134,1.944,4.953,1.477,1.201,4.082,3.379,9.013,7.204,13.592,2.656,3.179,5.432,5.629,8.475,7.29-.396,2.189-2.458,4.33-5.409,5.823-1.67.844-3.625,1.481-5.724,1.801-4.989.757-9.71-.354-12.776-2.235-.525-.318-1.075-.708-1.411-1.234-.116-.189-.214-.397-.22-.617-.006-.092.018-.446.128-.482,2.748-.928,3.499-3.768,3.365-6.65-.14-2.895-.873-5.857-.922-8.751-.012-.874.013-1.693.068-2.463Z"/><path class="f" d="M29.036,127.019c-1.841,3.694-2.38,7.864-1.995,11.951.21,2.235.673,4.443.799,6.687.077,1.378.081,3.078-.843,4.211-.528.648-1.355.687-1.923,1.254-.666.666-.839,1.7-.608,2.588.485,1.866,2.437,2.958,4.068,3.707,3.832,1.759,8.136,2.264,12.297,1.681,4.547-.637,9.209-2.657,11.91-6.511,1.48-2.113-1.986-4.114-3.454-2.019-2.242,3.2-6.902,4.554-10.605,4.747-2.06.107-4.098-.085-6.085-.641-.811-.227-1.612-.498-2.372-.865-.418-.201-.832-.419-1.224-.667-.182-.102-.354-.219-.516-.351-.336-.4-.426-.148-.269.755l-1.195.919c4.749-1.794,5.159-6.691,4.593-11.106-.617-4.819-1.385-9.781.877-14.32,1.145-2.297-2.304-4.325-3.454-2.019h0Z"/><path class="i" d="M2.027,202.11c.041-5.347,1.25-10.56,3.411-15.471,2.409-5.467,6.011-10.567,10.506-15.098,7.43-7.48,21.771-12.393,30.873-14.39.837-2.11,1.994-5.019,2.447-6.194.256-.663,1.063-.907,1.631-.48,3.454,2.598,8.777,6.604,15.151,10.633h2.504c4.397-3.596,12.359-9.499,15.374-11.902.585-.466,1.451-.192,1.668.524.621,2.051,1.265,4.028,2.308,7.621,9.116,2.128,22.764,6.96,29.942,14.188,4.611,4.643,8.279,9.892,10.688,15.52,2.053,4.784,3.187,9.85,3.229,15.049H2.027Z"/><path class="i" d="M99.252,109.081c1.031-.991,2.421-1.363,3.609-1.321,2.587.091,3.688,1.491,4.162,2.312,1.414,2.453,1.354,6.972.405,9.768-.672,1.98-1.774,5.009-4.428,7.182-1.094.895-2.704,1.485-4.243,1.225l-.407-.069c-.489,1.614-1.092,3.195-1.46,3.963-1,2.715-6.197,11.739-12.961,16.232-.002.495-.002.835-.002.835-3.019,2.406-10.98,8.307-15.377,11.904h-2.505c-6.376-4.031-11.701-8.039-15.157-10.638,0,0,0-.968-.003-2.008-2.65-1.632-5.102-3.879-7.46-6.701-3.824-4.577-6.002-9.507-7.204-13.593-1.641.423-3.415-.187-4.591-1.15-2.655-2.172-3.756-5.201-4.428-7.182-.949-2.796-1.009-7.315.405-9.768.474-.822,1.575-2.221,4.162-2.312,1.189-.042,2.578.33,3.609,1.321,0,0-7.034-32.396,32.799-32.396s31.075,32.396,31.075,32.396Z"/><path class="k" d="M111.543,202.9s0-18.157.002-35.482c-6.686-4.157-15.16-7.139-21.818-8.845,0,0-.076-.019-.214-.057-3.681,7.64-16.261,28.401-21.738,37.595h-1.058c-5.49-9.231-18.171-30.273-21.725-37.767l-.189.046c-6.504,1.601-14.944,4.479-21.75,8.533.001,17.595.001,35.978.001,35.978"/><path class="h" d="M103.956,83.309c-.467-1.421-1.033-2.811-1.689-4.164-3.954-8.206-11.206-14.93-19.769-18.482-4.827-2.011-10.068-3.023-15.39-2.724-17.608-.977-34.412,12.275-37.814,28.975-.931,4.505-.816,12.195.034,15.792,0,0,.851,3.666,1.391,5.598.319-.064.668-.106,1.049-.119,1.189-.042,2.578.33,3.609,1.321l4.775-2.053c17.978-2.899,28.515-11.773,39.391-20.884,1.243,3.243,3.71,7.814,4.98,9.943,1.842,3.088,6.312,8.242,10.66,11.119l4.068,1.875c1.031-.991,2.421-1.363,3.609-1.321.854.03,1.546.203,2.106.452,2.321-6.459,1.011-16.573-.058-21.722-.126-.655-.287-1.31-.46-1.954-.15-.555-.315-1.106-.494-1.651Z"/><path class="f" d="M32.648,107.772c-.898-3.252-1.728-6.498-1.92-9.875-.254-4.476-.082-9.018,1.223-13.33,2.562-8.47,8.737-15.619,16.352-20.004,3.855-2.22,8.12-3.75,12.531-4.377,2.25-.32,4.472-.222,6.73-.269,2.854-.059,5.642.126,8.432.761,9.677,2.202,18.319,8.537,23.299,17.126,2.662,4.591,3.929,9.655,4.542,14.887.592,5.054.898,10.534-.798,15.414-.847,2.437,3.016,3.484,3.857,1.063,1.654-4.759,1.565-10.096,1.093-15.049-.483-5.07-1.374-10.085-3.436-14.771-4.358-9.905-13.074-17.604-23.195-21.264-5.577-2.017-11.436-2.389-17.315-2.173-4.95.182-9.768,1.401-14.279,3.421-8.841,3.958-16.381,11.322-20.215,20.251-2.216,5.161-2.989,10.533-2.899,16.127.073,4.526.942,8.78,2.141,13.124.684,2.478,4.544,1.426,3.857-1.063h0Z"/><path class="f" d="M96.193,105.904c-6.92-4.65-11.637-12.075-14.663-19.713-.398-1.004-1.338-1.705-2.46-1.397-.955.263-1.797,1.45-1.397,2.46,3.437,8.675,8.638,16.82,16.501,22.104,2.143,1.44,4.147-2.024,2.019-3.454h0Z"/><path class="f" d="M78.048,85.224c-5.302,4.442-10.632,8.872-16.592,12.418-6.746,4.013-14.092,6.609-21.834,7.883-1.067.176-1.661,1.498-1.397,2.46.311,1.133,1.39,1.573,2.46,1.397,8.057-1.326,15.769-4.11,22.789-8.286,6.247-3.716,11.845-8.388,17.402-13.044,1.975-1.655-.867-4.472-2.828-2.828h0Z"/><path class="e" d="M40.781,161.106c2.841-1.3,6.088-2.816,6.203-2.857,3.031-1.093,2.907-3.04,3.296-5.226.257-1.483.447-2.833.563-4.315"/><path class="e" d="M83.265,149.014c.116,1.342.298,2.683.53,4.009.381,2.187.265,4.133,3.288,5.226.149.05,4.787,2.253,7.38,3.479"/><path class="f" d="M61.197,136.802c2.013,1.063,4.179,1.516,6.455,1.502,2.365-.015,4.7-.504,6.588-1.974.829-.646.729-2.159,0-2.828-.88-.807-1.944-.689-2.828,0,.679-.529-.108.042-.329.157-.174.091-.647.225-.053.045-.18.055-.355.136-.535.194-.489.157-.99.257-1.496.341.284-.047.179-.023-.044,0-.147.015-.294.027-.441.036-.354.023-.709.032-1.063.03-.318-.002-.635-.013-.952-.034-.146-.01-.291-.022-.436-.036-.125-.013-.59.015-.112-.01-.433.022-.985-.187-1.398-.31-.196-.059-.387-.129-.58-.195-.474-.162.382.187-.048-.016-.24-.113-.476-.231-.71-.355-.925-.488-2.217-.265-2.736.718-.488.924-.27,2.215.718,2.736h0Z"/><path class="f" d="M66.467,121.815c.273,1.042.536,2.1.692,3.167l-.071-.532c.019.146.027.29.012.437l.071-.532c-.01.068-.025.132-.048.197l.202-.478c-.02.046-.041.085-.069.126l.313-.405c-.033.04-.063.07-.103.102l.405-.313c-.08.051-.165.093-.251.133l.478-.202c-.138.058-.275.1-.423.123l.532-.071c-.133.016-.264.015-.397,0l.532.071c-.15-.021-.296-.057-.446-.077-.266-.083-.532-.095-.798-.036-.266.012-.514.091-.744.237-.415.243-.811.718-.919,1.195-.117.512-.091,1.087.202,1.541.26.403.695.852,1.195.919.374.05.737.145,1.118.161.601.026,1.154-.161,1.689-.408.669-.309,1.195-.932,1.373-1.651.151-.613.089-1.122-.015-1.737-.172-1.02-.408-2.031-.671-3.032-.127-.483-.49-.944-.919-1.195s-1.061-.357-1.541-.202c-1.042.337-1.681,1.376-1.397,2.46h0Z"/><path class="f" d="M50.084,112.746c-.529,1.719-.184,5.672,3.072,6.009,4.303-.026,4.532-4.806,3.084-7.053-1.186-1.84-4.674-2.605-6.155,1.044Z"/><path class="f" d="M84.545,112.746c.529,1.719.184,5.672-3.072,6.009-4.303-.026-4.533-4.806-3.084-7.053,1.186-1.84,4.674-2.605,6.156,1.045Z"/><path class="f" d="M97.024,125.727c-.345,1.652-.856,3.272-1.455,4.849-.201.529-.432,1.043-.648,1.566-.214.516.11-.216-.062.148-.069.147-.136.295-.206.442-.992,2.072-2.23,4.038-3.552,5.913-3.125,4.429-7.398,9.255-12.892,10.546-2.505.589-1.444,4.446,1.063,3.857,6.357-1.494,11.253-6.81,14.936-11.899,1.443-1.995,2.788-4.099,3.861-6.319.618-1.278.718-1.57,1.19-2.759.679-1.71,1.247-3.479,1.622-5.28.524-2.512-3.331-3.586-3.857-1.063h0Z"/><path class="f" d="M33.657,126.676c2.738,12.014,11.767,25.117,24.753,27.074,1.067.161,2.15-.268,2.46-1.397.26-.945-.322-2.298-1.397-2.46-11.695-1.762-19.499-13.487-21.959-24.28-.572-2.509-4.429-1.447-3.857,1.063h0Z"/><path class="f" d="M100.666,110.921c.759-.677,1.804-.861,2.787-.67.476.092.883.248,1.272.544-.176-.134.617.752.34.349,1.146,1.669,1.156,3.997.989,5.942-.169,1.968-.886,3.959-1.824,5.69-1.13,2.086-2.866,4.235-5.474,3.897-1.073-.139-2,1.019-2,2,0,1.196.924,1.86,2,2,5.742.745,9.247-5.483,10.679-10.119,1.277-4.132,1.267-10.618-2.785-13.275-2.727-1.788-6.443-1.301-8.813.814-1.925,1.717.912,4.538,2.828,2.828h0Z"/><path class="f" d="M36.792,108.092c-2.222-1.982-5.361-2.449-8.079-1.21-1.964.895-3.159,2.743-3.711,4.773-1.288,4.73-.073,10.254,2.637,14.287,1.836,2.732,4.722,5.185,8.234,4.73,1.071-.139,2-.82,2-2,0-.973-.921-2.14-2-2-2.607.338-4.343-1.811-5.474-3.897-.938-1.73-1.655-3.722-1.824-5.69-.167-1.942-.159-4.276.989-5.942-.28.407.504-.474.34-.349.348-.265.709-.418,1.127-.512,1.029-.233,2.129-.078,2.932.639,1.915,1.709,4.754-1.11,2.828-2.828h0Z"/><path class="f" d="M70.451,147.105c-.163-2.327,1.613-3.889,4.762-4,3.171-.111,4.778,1.153,4.873,2.982.096,1.844-1.373,4.076-4.546,4.284-2.865.188-4.958-1.177-5.09-3.266Z"/><path class="f" d="M99.31,128.815c-2.486,4.482-5.405,8.871-9.734,11.766-4.772,3.191-9.912,4.495-15.593,4.711-2.566.097-2.579,4.098,0,4,6.36-.242,12.262-1.688,17.612-5.257,4.921-3.283,8.336-8.093,11.169-13.201,1.25-2.253-2.204-4.273-3.454-2.019h0Z"/><path class="f" d="M72.451,147.105c-.011-.187-.003-.37-.001-.556.003-.403-.112.495-.018.11.016-.067.028-.135.045-.202.025-.099.06-.195.09-.293.055-.18.15-.112-.086.198.107-.141.227-.361.309-.517-.215.407-.236.284-.12.168.073-.073.141-.15.217-.221.041-.038.123-.091.158-.139-.251.335-.266.194-.057.057.159-.104.327-.187.494-.277.2-.108.092.067-.151.059.098.003.249-.093.349-.125.207-.067.418-.121.63-.166.08-.017.332-.104.407-.074-.018-.007-.506.047-.104.017.567-.042,1.131-.065,1.699-.021.025.002.25,0,.288.027l-.255-.035c.089.013.177.029.265.045.206.04.411.089.612.152.075.023.149.052.225.075.398.123-.417-.221-.063-.027.167.092.328.203.496.29.211.108-.365-.361-.133-.101.041.046.095.086.139.131.038.039.14.193.188.208-.288-.089-.246-.382-.15-.183.036.075.09.167.137.235.119.173-.123.122-.09-.23-.008.08.108.447.148.53-.172-.36-.036-.455-.032-.203.001.077.008.153.008.23,0,.062-.006.123-.006.185,0,.346-.147.052.03-.159-.068.081-.079.367-.11.468-.019.063-.043.124-.062.186-.107.343.247-.458.024-.064-.076.135-.145.272-.229.401-.121.186-.29.233.064-.063-.049.041-.095.114-.14.164-.124.138-.262.259-.396.386-.297.281.396-.25.04-.032-.102.062-.198.131-.301.191-.088.051-.181.095-.27.145-.171.096-.343.055.072-.021-.212.039-.426.151-.637.205-.091.023-.182.044-.274.063l-.141.027c-.222.036-.191.033.092-.008-.044-.055-.752.044-.834.044-.141,0-.687.061-.789-.043l.258.035c-.089-.014-.177-.029-.266-.047-.129-.026-.257-.056-.383-.09-.102-.028-.204-.059-.305-.093-.059-.019-.118-.04-.177-.063-.2-.079-.153-.059.141.06-.067-.11-.441-.244-.56-.314-.209-.122-.115-.224.089.079-.055-.082-.171-.149-.244-.221-.066-.065-.141-.19-.217-.238.148.093.257.369.065.06-.044-.072-.077-.164-.129-.23-.069-.139-.038-.06.093.237-.026-.066-.05-.132-.072-.2-.022-.068-.041-.137-.058-.206-.129-.533.019.352-.01-.01-.084-1.04-.86-2.051-2-2-1.012.045-2.09.883-2,2,.107,1.325.59,2.566,1.577,3.49.946.885,2.181,1.459,3.459,1.651,2.878.433,5.83-.32,7.586-2.767,1.384-1.929,1.354-4.647-.203-6.452-1.766-2.047-5.036-2.18-7.491-1.708-2.815.541-5.098,2.801-4.928,5.787.059,1.043.877,2.05,2,2,1.033-.046,2.064-.881,2-2Z"/><path class="i" d="M103.198,130.105c-4.631,0-8.14-4.3-8.14-11.903s4.241-11.391,8.142-11.391c3.967,0,9.249,3.129,9.249,11.391,0,7.186-4.086,11.903-9.251,11.903Z"/><path class="f" d="M103.198,128.105c-1.351-.022-2.579-.514-3.589-1.552-1.206-1.239-1.829-2.929-2.193-4.596-.845-3.867-.579-9.099,2.629-11.889,2.033-1.768,4.543-1.547,6.721-.164,3.147,1.999,3.962,6.32,3.607,9.953-.387,3.961-2.799,8.179-7.175,8.249-2.571.041-2.579,4.041,0,4,11.617-.186,14.957-17.786,7.005-24.595-3.145-2.693-7.755-3.662-11.432-1.435-4.93,2.986-6.187,9.404-5.564,14.733.647,5.531,3.783,11.197,9.99,11.296,2.575.041,2.576-3.959,0-4Z"/><path class="f" d="M25.177,202.11v-33c0-2.574-4-2.578-4,0v33c0,2.574,4,2.578,4,0h0Z"/><path class="f" d="M113.177,202.11v-33c0-2.574-4-2.578-4,0v33c0,2.574,4,2.578,4,0h0Z"/><path class="f" d="M77.241,169.159c-2.351-3.063-4.676-6.179-7.277-9.038v2.828c3.6-2.939,7.326-5.722,11.021-8.54.819-.625,1.638-1.251,2.454-1.881.406-.313.811-.626,1.215-.942.134-.105.322-.206.428-.336.23-.162.168-.154-.188.022-.397.254-.769.146-1.115-.325-.072.134.236.865.32,1.136.153.495.307.989.459,1.484.419,1.358.829,2.719,1.229,4.083.723,2.465,4.585,1.416,3.857-1.063-.451-1.535-.914-3.066-1.387-4.595-.367-1.186-.597-2.728-1.473-3.656-1.263-1.337-3.084-1.049-4.399-.018-.85.666-1.343,1.05-2.175,1.687-4.374,3.35-8.806,6.632-13.075,10.116-.865.706-.668,2.095,0,2.828,2.372,2.607,4.508,5.434,6.652,8.228.656.855,1.721,1.311,2.736.718.842-.493,1.379-1.874.718-2.736h0Z"/><path class="f" d="M60.629,171.411c2.204-2.87,4.393-5.783,6.83-8.461.886-.974.718-2.429-.405-3.141-3.268-2.072-6.464-4.255-9.6-6.522-1.197-.865-2.386-1.742-3.57-2.625-1.249-.933-2.522-2.266-4.227-1.903-1.627.346-2.162,1.667-2.707,3.055-.391.996-.786,1.99-1.181,2.985-.616,1.55-1.235,3.1-1.854,4.649-.401,1.003.438,2.197,1.397,2.46,1.14.313,2.057-.39,2.46-1.397.505-1.262,1.008-2.524,1.511-3.786.391-.982.781-1.964,1.17-2.947.16-.405.32-.811.479-1.217.048-.122.19-.347.186-.478.108-.263-.016-.108-.373.466-.885-.117-1.113-.045-.682.214.349.399.958.72,1.38,1.036.512.383,1.024.765,1.538,1.146,1.165.863,2.337,1.717,3.517,2.559,2.795,1.995,5.638,3.921,8.539,5.759l-.405-3.141c-2.666,2.93-5.045,6.132-7.456,9.271-.658.857-.132,2.24.718,2.736,1.031.603,2.076.142,2.736-.718h0Z"/><path class="f" d="M4,202.552c.13-9.297,3.927-18.115,9.787-25.244,2.531-3.079,5.317-5.828,8.665-8.005s6.965-3.946,10.669-5.423c3.974-1.584,8.062-2.88,12.213-3.91,2.497-.619,1.439-4.478-1.063-3.857-8.052,1.997-16.158,4.91-23.211,9.335-7.534,4.727-13.559,12.16-17.206,20.236C1.45,191.012.082,196.697,0,202.552c-.036,2.575,3.964,2.576,4,0h0Z"/><path class="f" d="M89.195,160.153c7.404,1.912,14.778,4.573,21.299,8.619,6.979,4.33,12.395,11.177,15.823,18.588,2.203,4.763,3.393,9.947,3.468,15.192.036,2.572,4.036,2.579,4,0-.14-9.879-3.977-19.139-9.999-26.871-2.674-3.433-5.676-6.535-9.25-9.033-3.513-2.455-7.375-4.359-11.319-6.013-4.205-1.764-8.544-3.199-12.959-4.339-2.494-.644-3.558,3.213-1.063,3.857h0Z"/><path class="f" d="M88.441,155.665c-.046.129-.097.256-.145.385-.182.489.112-.237-.037.088-.191.416-.38.831-.581,1.243-.466.956-.959,1.9-1.46,2.838-1.395,2.617-2.857,5.198-4.333,7.77-3.537,6.167-7.175,12.275-10.822,18.377-1.671,2.796-3.348,5.589-5.016,8.388-1.321,2.217,2.136,4.231,3.454,2.019,6.702-11.247,13.629-22.394,19.842-33.923,1.068-1.982,2.193-3.995,2.953-6.121.868-2.428-2.996-3.474-3.857-1.063h0Z"/><path class="f" d="M68.444,194.753c-6.625-11.137-13.437-22.193-19.585-33.604-.615-1.142-1.222-2.29-1.796-3.454-.213-.432-.418-.867-.619-1.304-.038-.084-.074-.168-.112-.252-.192-.423.159.418.007.017-.062-.164-.128-.326-.187-.491-.857-2.408-4.723-1.371-3.857,1.063,1.623,4.562,4.395,8.843,6.78,13.027,3.542,6.215,7.189,12.369,10.847,18.515,1.688,2.835,3.382,5.666,5.068,8.502,1.315,2.21,4.774.201,3.454-2.019h0Z"/><path class="i" d="M451.079,202.585c-1.072-4.54-3.55-10.539-6.073-14.431-2.084-3.215-6.103-6.497-9.311-8.537-6.86-4.35-14.87-6.701-21.933-9.456-5.61,4.646-15.855,8.393-26.534,8.425-10.743-.032-21.046-3.823-26.636-8.501-7.111,2.788-15.205,5.143-22.128,9.532-3.208,2.039-7.227,5.322-9.311,8.537-2.523,3.893-5.001,9.891-6.073,14.431h128Z"/><path class="i" d="M419.09,116.054c1.034-.994,2.428-1.367,3.62-1.325,2.595.091,3.699,1.495,4.174,2.319,1.418,2.46,1.358,6.993.406,9.797-.674,1.986-1.779,5.025-4.442,7.203-1.208.988-3.042,1.605-4.719,1.123-1.187,4.141-3.353,9.154-7.183,13.814-2.527,3.075-4.952,5.167-7.714,6.723,0,2.987,0,4.966,0,4.966,0,.878,0,1.835.324,2.69.435,1.123,1.02,2.096,1.962,2.856,1.993,1.606,4.042,2.373,6.566,3.322l1.647.65c-5.619,4.629-15.845,8.362-26.504,8.393-10.586-.031-20.745-3.713-26.389-8.299l1.889-.744c2.523-.949,4.572-1.717,6.566-3.322.941-.759,1.527-1.732,1.962-2.856.324-.854.324-1.811.324-2.69,0,0,0-1.589-.002-4.217-3.09-1.694-5.901-4.206-8.585-7.472-3.816-4.644-5.981-9.638-7.17-13.771-1.632.399-3.388-.21-4.557-1.166-2.663-2.179-3.767-5.217-4.442-7.203-.952-2.805-1.012-7.337.406-9.797.475-.824,1.579-2.228,4.174-2.319,1.192-.042,2.586.331,3.62,1.325,0,0-9.571-29.535,30.619-29.535s33.447,29.535,33.447,29.535Z"/><path class="h" d="M423.88,90.269c-1.587-4.849-4.186-9.136-7.964-12.161l-4.258-4.465c-4.831-6.369-12.683-9.822-23.902-10.314-14.594-.494-25.367,6.037-30.135,12.119l.978,1.011c-9.898,8.591-13.501,23.96-8.701,38.5.436-.127.934-.21,1.505-.23,1.192-.042,2.586.331,3.62,1.325l5.12-4.299c3.842-4.281,10.624-10.735,15.383-13.231.558-.293,1.275.103,1.501,1.036.219.901.217,1.585.146,2.233-.108.983.846,1.698,1.657,1.248,3.397-1.887,9.451-5.686,13.743-7.494l6.365.782c2.049.891,3.608,1.747,5.862,3.687,3.864,3.325,7.568,7.885,9.208,12.013l5.081,4.026c1.034-.994,2.428-1.367,3.62-1.325.654.023,1.213.129,1.691.289,1.966-7.777,2.02-16.984-.521-24.748Z"/><path class="f" d="M360.165,172.281c5.67,4.372,12.965,6.764,19.985,7.759,8.039,1.14,16.302.346,23.952-2.414,3.613-1.304,7.135-2.992,10.188-5.346.854-.658,1.312-1.72.718-2.736-.492-.84-1.876-1.381-2.736-.718-5.318,4.101-12.006,6.313-18.588,7.292-7.4,1.101-15.039.221-22.074-2.281-3.362-1.196-6.593-2.828-9.425-5.011-.856-.66-2.24-.131-2.736.718-.604,1.032-.141,2.075.718,2.736h0Z"/><path class="f" d="M401.232,156.562v3.308c0,1.341-.056,2.743.396,4.027.875,2.488,2.705,4.197,4.973,5.451,2.63,1.455,5.604,2.381,8.4,3.484,1.005.397,2.196-.435,2.46-1.397.312-1.136-.388-2.062-1.397-2.46-2.311-.912-4.781-1.726-6.854-2.77-.849-.427-1.826-.99-2.451-1.544-.166-.147-.317-.303-.47-.464-.156-.187-.187-.22-.093-.101-.084-.117-.163-.237-.239-.359-.114-.185-.219-.375-.317-.569-.162-.321-.168-.312-.237-.571-.259-.967-.172-2.131-.172-3.229v-2.807c0-1.081-.919-2-2-2s-2,.915-2,2h0Z"/><path class="f" d="M369.579,157.305v2.993c0,.574.023,1.159-.041,1.731.032-.289-.08.386-.076.369-.037.148-.083.293-.137.435.071-.151.056-.117-.044.103-.418.887-.757,1.359-1.362,1.841-.795.633-1.71,1.138-2.623,1.578-.873.42-1.623.702-2.648,1.089-.391.148-.78.299-1.169.452l-2.742,1.079c-1.004.395-1.705,1.34-1.397,2.46.263.957,1.449,1.795,2.46,1.397,2.694-1.06,5.531-1.969,8.093-3.315,2.16-1.135,4.027-2.664,5.008-4.946.974-2.265.676-4.852.676-7.265,0-1.081-.919-2-2-2s-2,.915-2,2h0Z"/><path class="f" d="M359.035,76.862c4.231-5.33,10.624-8.685,17.133-10.335,7.991-2.026,17.265-1.758,24.924,1.482,3.419,1.446,6.564,3.687,8.838,6.643.657.855,1.72,1.312,2.736.718.841-.492,1.38-1.875.718-2.736-5.122-6.66-12.716-9.827-20.885-10.894-9.31-1.215-19.008.221-27.25,4.848-3.4,1.909-6.609,4.38-9.043,7.446-.671.845-.825,2.003,0,2.828.696.696,2.153.851,2.828,0h0Z"/><path class="f" d="M351.77,114.257c-4.007-12.521-1.997-27.381,8.243-36.384,1.937-1.703-.901-4.523-2.828-2.828-11.252,9.892-13.684,26.489-9.271,40.276.782,2.442,4.645,1.398,3.857-1.063h0Z"/><path class="f" d="M414.502,79.523c9.862,8.027,10.825,23.277,8.015,34.785-.61,2.5,3.246,3.567,3.857,1.063,3.123-12.788,1.909-29.762-9.044-38.676-.837-.681-2.01-.819-2.828,0-.704.704-.842,2.143,0,2.828h0Z"/><path class="f" d="M353.263,133.253c2.683,12.096,11.649,25.431,24.723,27.468,1.066.166,2.151-.272,2.46-1.397.261-.949-.323-2.293-1.397-2.46-11.782-1.836-19.519-13.807-21.929-24.674-.557-2.512-4.414-1.449-3.857,1.063h0Z"/><path class="f" d="M416.819,132.19c-1.191,5.371-3.467,10.518-6.869,14.863-3.368,4.301-7.478,7.34-12.674,9.042-2.435.798-1.393,4.662,1.063,3.857,5.856-1.919,10.627-5.255,14.456-10.092,3.847-4.86,6.538-10.555,7.881-16.607.556-2.508-3.299-3.579-3.857-1.063h0Z"/><path class="f" d="M380.924,143.234c2.018,1.066,4.189,1.52,6.472,1.505,2.37-.015,4.711-.504,6.603-1.978.829-.646.729-2.159,0-2.828-.88-.807-1.944-.689-2.828,0,.679-.529-.11.043-.331.159-.174.091-.647.225-.055.045-.181.055-.356.137-.536.195-.491.158-.993.258-1.5.342.285-.047.175-.023-.045,0-.147.015-.295.027-.442.036-.355.023-.711.032-1.067.03-.319-.002-.637-.013-.955-.034-.146-.01-.292-.022-.437-.036-.122-.012-.593.013-.114-.01-.435.021-.987-.187-1.402-.311-.196-.059-.388-.129-.582-.195-.475-.162.381.186-.049-.017-.24-.113-.477-.231-.712-.356-.925-.488-2.217-.265-2.736.718-.488.924-.27,2.215.718,2.736h0Z"/><path class="f" d="M386.212,128.205c.274,1.045.537,2.107.694,3.176l-.071-.532c.019.147.027.291.012.438l.071-.532c-.01.068-.025.132-.048.197l.202-.478c-.02.046-.042.085-.07.127l.313-.405c-.033.04-.064.07-.104.102l.405-.313c-.08.052-.165.093-.252.133l.478-.202c-.139.058-.276.1-.424.124l.532-.071c-.134.016-.264.015-.398,0l.532.071c-.15-.021-.297-.057-.447-.078-.266-.083-.532-.095-.798-.036-.266.012-.514.091-.744.237-.415.243-.811.718-.919,1.195-.117.512-.091,1.087.202,1.541.26.403.695.852,1.195.919.375.05.738.145,1.119.161.602.026,1.156-.161,1.691-.408.67-.309,1.196-.932,1.374-1.653.152-.614.089-1.124-.015-1.739-.173-1.023-.409-2.038-.673-3.041-.127-.483-.49-.944-.919-1.195s-1.061-.357-1.541-.202c-1.042.337-1.681,1.376-1.397,2.46h0Z"/><path class="f" d="M369.774,119.111c-.53,1.724-.185,5.689,3.081,6.027,4.316-.026,4.546-4.82,3.093-7.074-1.19-1.846-4.688-2.613-6.174,1.048Z"/><path class="f" d="M404.339,119.111c.531,1.724.185,5.689-3.081,6.027-4.316-.026-4.546-4.82-3.093-7.074,1.19-1.846,4.688-2.613,6.174,1.048Z"/><path class="f" d="M356.438,114.64c-2.226-1.986-5.373-2.454-8.096-1.213-1.968.897-3.166,2.749-3.72,4.784-1.291,4.743-.073,10.282,2.645,14.326,1.84,2.738,4.733,5.198,8.254,4.741,1.071-.139,2-.82,2-2,0-.973-.921-2.14-2-2-2.617.34-4.36-1.818-5.496-3.912-.941-1.736-1.661-3.735-1.83-5.71-.167-1.947-.161-4.29.993-5.963-.279.404.503-.474.343-.352.347-.264.713-.42,1.132-.515,1.034-.234,2.139-.078,2.947.642,1.915,1.709,4.754-1.11,2.828-2.828h0Z"/><path class="f" d="M420.504,117.468c.763-.681,1.813-.865,2.801-.674.475.092.889.25,1.278.546-.172-.131.618.752.343.352,1.152,1.676,1.16,4.014.993,5.963-.169,1.975-.889,3.973-1.83,5.71-1.135,2.094-2.878,4.251-5.496,3.912-1.073-.139-2,1.019-2,2,0,1.196.924,1.86,2,2,5.756.747,9.269-5.497,10.706-10.145,1.28-4.142,1.271-10.645-2.79-13.308-2.733-1.792-6.457-1.304-8.833.815-1.925,1.717.912,4.538,2.828,2.828h0Z"/><path class="f" d="M397.929,98.055c3.196,1.4,5.79,3.468,8.201,5.974,2.365,2.46,4.723,5.501,5.951,8.531.405,1,1.332,1.707,2.46,1.397.949-.261,1.805-1.453,1.397-2.46-1.538-3.795-3.984-7.137-6.79-10.097-2.66-2.806-5.643-5.241-9.2-6.798-.989-.433-2.147-.29-2.736.718-.496.848-.277,2.301.718,2.736h0Z"/><path class="f" d="M361.557,113.169c2.526-2.802,5.229-5.456,8.079-7.927,1.36-1.179,2.755-2.318,4.234-3.345.617-.429,1.248-.841,1.897-1.22.17-.1.342-.197.515-.291-.473.071-.868-.027-1.185-.294-.064.119.109,1.173.104,1.373-.052,1.998,1.162,3.832,3.354,3.684,1.583-.107,3.305-1.536,4.652-2.323,3.381-1.975,6.768-4.009,10.374-5.553.993-.425,1.214-1.887.718-2.736-.601-1.027-1.739-1.144-2.736-.718-3.606,1.544-6.993,3.578-10.374,5.553-.784.458-1.567.917-2.355,1.369-.174.1-.348.199-.523.298-.472.197-.316.285.468.264.313.621.453.675.423.163.016-.231.018-.462.006-.694-.085-1.95-.948-4.276-3.245-4.34-1.54-.043-3.19,1.357-4.393,2.209-1.653,1.17-3.233,2.448-4.763,3.774-2.851,2.471-5.553,5.125-8.079,7.927-1.72,1.908,1.1,4.745,2.828,2.828h0Z"/><path class="f" d="M325.008,203.117c1.466-6.061,4.049-12.694,8.575-17.125,5.068-4.962,11.542-7.979,18.095-10.465,3.695-1.402,7.439-2.676,11.096-4.178.998-.41,1.708-1.329,1.397-2.46-.26-.945-1.455-1.81-2.46-1.397-13.348,5.483-29.155,9.099-36.238,23.089-1.842,3.637-3.363,7.506-4.322,11.472-.605,2.501,3.251,3.568,3.857,1.063h0Z"/><path class="f" d="M453.008,202.053c-.835-3.452-2.113-6.8-3.614-10.015s-3.306-6.212-5.844-8.73c-5.382-5.34-12.212-8.637-19.205-11.332-3.955-1.524-7.976-2.873-11.898-4.484-1-.411-2.199.445-2.46,1.397-.315,1.147.394,2.048,1.397,2.46,6.491,2.666,13.278,4.619,19.532,7.844,3.087,1.592,6.008,3.482,8.597,5.805,2.456,2.204,4.233,4.667,5.719,7.602,1.69,3.338,3.039,6.878,3.919,10.517.605,2.501,4.463,1.442,3.857-1.063h0Z"/><path class="j" d="M290.629,30.653c-37.479.014-86.6.028-122.494.041,0,0-.187,0-.544,0v160.88c.348,0,.53,0,.53,0,38.177-.015,91.293-.029,129.47-.044,0-34.041,0-126.874,0-160.879-2.27,0-4.593.002-6.962.003Z"/><path class="i" d="M167.591,205.498c0,8.113,6.577,14.689,14.69,14.689h100.621c8.113,0,14.689-6.577,14.689-14.689v-13.963c-40.427.011-89.671.023-130,.034v13.929Z"/><path class="i" d="M297.591,16.722c0-8.113-6.577-14.69-14.689-14.69h-100.621c-8.113,0-14.69,6.577-14.69,14.69v13.968c38.79-.011,100.358-.027,130-.035v-13.934Z"/><path class="f" d="M297.591,28.651c-3.508.001-7.015.002-10.523.003-8.179.003-16.357.005-24.536.008-10.669.004-21.339.007-32.008.011-10.979.004-21.959.007-32.938.011-9.109.003-18.218.006-27.327.01-.889,0-1.778.001-2.668,0-2.574-.002-2.578,3.998,0,4,8.707.006,17.414-.006,26.12-.009,10.864-.004,21.729-.008,32.593-.011s21.656-.007,32.484-.011c8.611-.003,17.222-.006,25.834-.008,4.208-.001,8.435.113,12.642-.004.109-.003.219,0,.328,0,2.574,0,2.578-4.001,0-4h0Z"/><path class="f" d="M167.591,193.575c16.476-.033,32.952-.012,49.428-.018,17.73-.006,35.46-.011,53.19-.017,9.127-.003,18.255-.006,27.382-.01,2.574,0,2.578-4.001,0-4-16.725.006-33.451.012-50.176.017-17.711.006-35.422.011-53.133.017-8.897.003-17.794-.008-26.691.01-2.574.005-2.578,4.005,0,4h0Z"/><path class="f" d="M282.902,218.188h-21.902c-14.561,0-29.122,0-43.684,0-10.81,0-21.62,0-32.43,0-.829,0-1.659.006-2.488,0-3.599-.027-6.962-1.43-9.431-4.069-2.224-2.377-3.35-5.494-3.376-8.726-.004-.492,0-.985,0-1.478v-58.177c0-14.911,0-29.822,0-44.734V18.912c0-2.783.057-5.447,1.412-8.019,2.218-4.21,6.532-6.811,11.28-6.861.576-.006,1.153,0,1.73,0h11.625c13.815,0,27.63,0,41.446,0,12.726,0,25.452,0,38.178,0,2.513,0,5.027-.02,7.541,0,7.1.056,12.735,5.726,12.788,12.816.039,5.099,0,10.2,0,15.299,0,11.42,0,22.839,0,34.259v122.491c0,5.443.016,10.887,0,16.33-.02,7.085-5.539,12.877-12.689,12.961-2.572.03-2.579,4.03,0,4,9.241-.108,16.622-7.607,16.689-16.823.012-1.619,0-3.239,0-4.859v-67.457c0-15.193,0-30.387,0-45.58s0-27.155,0-40.733v-25.699c0-1.423.013-2.847,0-4.271-.085-9.196-7.532-16.649-16.73-16.733-7.926-.072-15.856,0-23.782,0h-75.275c-.741,0-1.486-.018-2.226.016-5.424.255-10.415,3.134-13.365,7.69-2.131,3.291-2.623,6.979-2.623,10.776,0,7.184,0,14.369,0,21.553s0,25.53,0,38.295,0,30.389,0,45.583v42.631c0,10.071,0,20.142,0,30.213v7.417c0,4.839,1.293,9.419,4.773,12.976,3.149,3.219,7.487,4.963,11.969,5.004.752.007,1.505,0,2.258,0h12.669c14.185,0,28.371,0,42.556,0,12.392,0,24.784,0,37.176,0h5.91c2.574,0,2.578-4,0-4Z"/><path class="i" d="M313.781,72.849h0s10.426,0,10.426,0c1.23,0,1.843-1.489.97-2.355l-11.396-11.302v-4.157c0-5.554-4.503-10.057-10.057-10.057h-89.712c-5.554,0-10.057,4.503-10.057,10.057v17.814c0,5.554,4.503,10.057,10.057,10.057h89.712c5.554,0,10.057-4.503,10.057-10.057Z"/><path class="f" d="M315.781,72.849h0c-.667.667-1.333,1.333-2,2h6.201c2.044,0,5.17.55,6.712-1.106,1.294-1.39,1.054-3.392-.159-4.719-.453-.496-.96-.952-1.436-1.424l-5.688-5.641-4.215-4.181.586,1.414c0-2.533.239-5.229-.524-7.679-1.212-3.897-4.383-7.019-8.328-8.104-2.053-.565-4.234-.431-6.343-.431h-83.387c-2.07,0-4.21-.131-6.232.389-3.924,1.009-7.064,4.031-8.386,7.833-.691,1.988-.627,4.055-.627,6.122v14.803c0,2.785.6,5.465,2.272,7.751,2.305,3.151,5.888,4.974,9.789,5.031,5.097.075,10.201,0,15.299,0h72.278c3.086,0,6.077-.176,8.764-1.991,3.379-2.282,5.356-5.998,5.425-10.067.043-2.575-3.957-2.575-4,0-.067,3.965-2.926,7.386-6.891,7.986-.705.107-1.449.071-2.163.071h-86.283c-.738,0-1.475.004-2.213,0-2.354-.011-4.514-.859-6.14-2.591-1.813-1.932-2.136-4.298-2.136-6.809v-15.636c0-2.796.79-5.377,3.074-7.181,2.342-1.85,5.02-1.711,7.781-1.711h86.111c1.111,0,2.18.044,3.262.381,3.469,1.079,5.58,4.357,5.598,7.902.006,1.265-.07,2.548,0,3.812.053.968.524,1.474,1.145,2.089l5.579,5.533,3.1,3.075c.623.618,1.232,1.399,1.938,1.922.396.294-.006.286.044-.201.073-.711,1.049-.559.211-.641-1.127-.11-2.321,0-3.452,0h-6.565c-1.081,0-2,.916-2,2h0c0,2.574,4,2.578,4,0Z"/><path class="g" d="M225.343,67.942c19.444,0,38.889,0,58.333,0,2.092,0,4.097-1.84,4-4s-1.758-4-4-4c-19.444,0-38.889,0-58.333,0-2.092,0-4.097,1.84-4,4s1.758,4,4,4h0Z"/><path class="d" d="M150.815,142.146h0s-10.551,0-10.551,0c-1.244,0-1.865-1.507-.981-2.383l11.532-11.437v-20.929c0-5.621,4.557-10.177,10.177-10.177h90.785c5.621,0,10.177,4.557,10.177,10.177v34.749c0,5.621-4.557,10.177-10.177,10.177h-90.785c-5.621,0-10.177-4.557-10.177-10.177Z"/><path class="f" d="M152.815,142.146h0c0-1.081-.916-2-2-2h-9.859c-.153,0-.363-.041-.509,0-.314.088-.174-.309.227.163.463.544-.289,1.037.24.652.335-.243.622-.617.914-.907l6.875-6.818,2.886-2.863c.635-.629,1.166-1.108,1.225-2.11.125-2.151,0-4.348,0-6.502v-10.216c0-2.034-.25-4.34.292-6.323.981-3.59,4.273-5.955,7.943-6.004,7.7-.101,15.409,0,23.109,0h41.526c8.566,0,17.132-.022,25.698,0,2.454.006,4.696.81,6.403,2.629,1.781,1.898,2.169,4.242,2.169,6.718v17.326c0,5.269.012,10.537,0,15.806-.007,3.214-1.445,6.099-4.336,7.669-1.458.792-3.022.955-4.637.955h-68.57c-7.137,0-14.283.105-21.419,0-4.522-.067-8.101-3.664-8.177-8.177-.043-2.571-4.044-2.579-4,0,.08,4.747,2.813,9.176,7.206,11.105,1.78.781,3.643,1.073,5.571,1.073h88.922c.651,0,1.31.022,1.959-.023,4.853-.337,9.002-3.426,10.733-7.968.728-1.911.747-3.888.747-5.89v-25.893c0-4.468.657-9.625-1.833-13.578-2.254-3.579-6.157-5.693-10.368-5.751-.577-.008-1.155,0-1.732,0h-66.083c-7.541,0-15.082-.026-22.623,0-6.921.024-12.463,5.395-12.501,12.364-.029,5.322,0,10.646,0,15.968v4.774l.586-1.414c-3.153,3.127-6.305,6.254-9.458,9.38-1.439,1.427-3.548,2.949-2.973,5.272.758,3.061,4.125,2.582,6.518,2.582h7.327l-2-2h0c0,2.574,4,2.578,4,0Z"/><path class="i" d="M175.677,119.772h58c2.092,0,4.097-1.84,4-4s-1.758-4-4-4h-58c-2.092,0-4.097,1.84-4,4s1.758,4,4,4h0Z"/><path class="i" d="M175.677,137.772h29.735c2.092,0,4.097-1.84,4-4s-1.758-4-4-4h-29.735c-2.092,0-4.097,1.84-4,4s1.758,4,4,4h0Z"/></g></svg>