<svg width="1440" height="161" viewBox="0 0 1440 161" fill="none" xmlns="http://www.w3.org/2000/svg">
<path d="M0 128.288L48 112.288C96 96.2882 192 64.2882 288 37.5882C384 11.2882 480 -10.7118 576 5.58817C672 21.2882 768 75.2882 864 90.9882C960 107.288 1056 85.2882 1152 90.9882C1248 96.2882 1344 128.288 1392 144.288L1440 160.288H1392C1344 160.288 1248 160.288 1152 160.288C1056 160.288 960 160.288 864 160.288C768 160.288 672 160.288 576 160.288C480 160.288 384 160.288 288 160.288C192 160.288 96 160.288 48 160.288H0V128.288Z" fill="#FFFAED"/>
</svg>
